# Blender v2.90.0 OBJ File: 'blazor.blend'
# www.blender.org
mtllib blazor.mtl
o Cylinder
v 0.000000 -1.000000 0.000000
v 0.000000 1.492348 0.000000
v 0.000000 -1.000000 -1.000000
v 0.000000 1.000000 -1.000000
v 0.195090 -1.000000 -0.980785
v 0.195090 1.000000 -0.980785
v 0.382683 -1.000000 -0.923880
v 0.382683 1.000000 -0.923880
v 0.555570 -1.000000 -0.831470
v 0.555570 1.000000 -0.831470
v 0.707107 -1.000000 -0.707107
v 0.707107 1.000000 -0.707107
v 0.831470 -1.000000 -0.555570
v 0.831470 1.000000 -0.555570
v 0.923880 -1.000000 -0.382683
v 0.923880 1.000000 -0.382683
v 0.980785 -1.000000 -0.195090
v 0.980785 1.000000 -0.195090
v 1.000000 -1.000000 -0.000000
v 1.000000 1.000000 -0.000000
v 0.980785 -1.000000 0.195090
v 0.980785 1.000000 0.195090
v 0.923880 -1.000000 0.382683
v 0.923880 1.000000 0.382683
v 0.831470 -1.000000 0.555570
v 0.831470 1.000000 0.555570
v 0.707107 -1.000000 0.707107
v 0.707107 1.000000 0.707107
v 0.555570 -1.000000 0.831470
v 0.555570 1.000000 0.831470
v 0.382683 -1.000000 0.923880
v 0.382683 1.000000 0.923880
v 0.195090 -1.000000 0.980785
v 0.195090 1.000000 0.980785
v -0.000000 -1.000000 1.000000
v -0.000000 1.000000 1.000000
v -0.195091 -1.000000 0.980785
v -0.195091 1.000000 0.980785
v -0.382684 -1.000000 0.923879
v -0.382684 1.000000 0.923879
v -0.555571 -1.000000 0.831469
v -0.555571 1.000000 0.831469
v -0.707107 -1.000000 0.707106
v -0.707107 1.000000 0.707106
v -0.831470 -1.000000 0.555570
v -0.831470 1.000000 0.555570
v -0.923880 -1.000000 0.382683
v -0.923880 1.000000 0.382683
v -0.980785 -1.000000 0.195089
v -0.980785 1.000000 0.195089
v -1.000000 -1.000000 -0.000001
v -1.000000 1.000000 -0.000001
v -0.980785 -1.000000 -0.195091
v -0.980785 1.000000 -0.195091
v -0.923879 -1.000000 -0.382684
v -0.923879 1.000000 -0.382684
v -0.831469 -1.000000 -0.555571
v -0.831469 1.000000 -0.555571
v -0.707106 -1.000000 -0.707108
v -0.707106 1.000000 -0.707108
v -0.555569 -1.000000 -0.831470
v -0.555569 1.000000 -0.831470
v -0.382682 -1.000000 -0.923880
v -0.382682 1.000000 -0.923880
v -0.195089 -1.000000 -0.980786
v -0.195089 1.000000 -0.980786
vt 0.750000 0.250000
vt 0.750000 0.490000
vt 0.796822 0.485388
vt 0.250000 0.250000
vt 0.296822 0.485388
vt 0.250000 0.490000
vt 1.000000 1.000000
vt 0.968750 0.500000
vt 1.000000 0.500000
vt 0.841844 0.471731
vt 0.341844 0.471731
vt 0.968750 1.000000
vt 0.937500 0.500000
vt 0.883337 0.449553
vt 0.383337 0.449553
vt 0.937500 1.000000
vt 0.906250 0.500000
vt 0.919706 0.419706
vt 0.419706 0.419706
vt 0.906250 1.000000
vt 0.875000 0.500000
vt 0.949553 0.383337
vt 0.449553 0.383337
vt 0.875000 1.000000
vt 0.843750 0.500000
vt 0.971731 0.341844
vt 0.471731 0.341844
vt 0.843750 1.000000
vt 0.812500 0.500000
vt 0.985388 0.296822
vt 0.485388 0.296822
vt 0.812500 1.000000
vt 0.781250 0.500000
vt 0.990000 0.250000
vt 0.490000 0.250000
vt 0.781250 1.000000
vt 0.750000 0.500000
vt 0.985388 0.203178
vt 0.485388 0.203178
vt 0.750000 1.000000
vt 0.718750 0.500000
vt 0.971731 0.158156
vt 0.471731 0.158156
vt 0.718750 1.000000
vt 0.687500 0.500000
vt 0.949553 0.116663
vt 0.449553 0.116663
vt 0.687500 1.000000
vt 0.656250 0.500000
vt 0.919706 0.080294
vt 0.419706 0.080294
vt 0.656250 1.000000
vt 0.625000 0.500000
vt 0.883337 0.050447
vt 0.383337 0.050447
vt 0.625000 1.000000
vt 0.593750 0.500000
vt 0.841844 0.028269
vt 0.341844 0.028269
vt 0.593750 1.000000
vt 0.562500 0.500000
vt 0.796822 0.014612
vt 0.296822 0.014612
vt 0.562500 1.000000
vt 0.531250 0.500000
vt 0.750000 0.010000
vt 0.250000 0.010000
vt 0.531250 1.000000
vt 0.500000 0.500000
vt 0.703178 0.014612
vt 0.203178 0.014612
vt 0.500000 1.000000
vt 0.468750 0.500000
vt 0.658156 0.028269
vt 0.158156 0.028269
vt 0.468750 1.000000
vt 0.437500 0.500000
vt 0.616663 0.050447
vt 0.116663 0.050447
vt 0.437500 1.000000
vt 0.406250 0.500000
vt 0.580294 0.080294
vt 0.080294 0.080294
vt 0.406250 1.000000
vt 0.375000 0.500000
vt 0.550447 0.116663
vt 0.050447 0.116663
vt 0.375000 1.000000
vt 0.343750 0.500000
vt 0.528269 0.158156
vt 0.028269 0.158156
vt 0.343750 1.000000
vt 0.312500 0.500000
vt 0.514611 0.203179
vt 0.014611 0.203179
vt 0.312500 1.000000
vt 0.281250 0.500000
vt 0.510000 0.250000
vt 0.010000 0.250000
vt 0.281250 1.000000
vt 0.250000 0.500000
vt 0.514612 0.296822
vt 0.014612 0.296822
vt 0.250000 1.000000
vt 0.218750 0.500000
vt 0.528269 0.341844
vt 0.028269 0.341844
vt 0.218750 1.000000
vt 0.187500 0.500000
vt 0.550447 0.383337
vt 0.050447 0.383337
vt 0.187500 1.000000
vt 0.156250 0.500000
vt 0.580295 0.419706
vt 0.080295 0.419706
vt 0.156250 1.000000
vt 0.125000 0.500000
vt 0.616663 0.449553
vt 0.116663 0.449553
vt 0.125000 1.000000
vt 0.093750 0.500000
vt 0.658156 0.471731
vt 0.158156 0.471731
vt 0.093750 1.000000
vt 0.062500 0.500000
vt 0.703179 0.485389
vt 0.203179 0.485389
vt 0.062500 1.000000
vt 0.031250 0.500000
vt 0.031250 1.000000
vt 0.000000 0.500000
vt 0.000000 1.000000
vn 0.0000 -1.0000 0.0000
vn 0.0435 0.8963 -0.4413
vn 0.0980 0.0000 -0.9952
vn 0.1287 0.8963 -0.4243
vn 0.2903 0.0000 -0.9569
vn 0.2090 0.8963 -0.3911
vn 0.4714 0.0000 -0.8819
vn 0.2813 0.8963 -0.3428
vn 0.6344 0.0000 -0.7730
vn 0.3428 0.8963 -0.2813
vn 0.7730 0.0000 -0.6344
vn 0.3911 0.8963 -0.2090
vn 0.8819 0.0000 -0.4714
vn 0.4243 0.8963 -0.1287
vn 0.9569 0.0000 -0.2903
vn 0.4413 0.8963 -0.0435
vn 0.9952 0.0000 -0.0980
vn 0.4413 0.8963 0.0435
vn 0.9952 0.0000 0.0980
vn 0.4243 0.8963 0.1287
vn 0.9569 0.0000 0.2903
vn 0.3911 0.8963 0.2090
vn 0.8819 0.0000 0.4714
vn 0.3428 0.8963 0.2813
vn 0.7730 0.0000 0.6344
vn 0.2813 0.8963 0.3428
vn 0.6344 0.0000 0.7730
vn 0.2090 0.8963 0.3911
vn 0.4714 0.0000 0.8819
vn 0.1287 0.8963 0.4243
vn 0.2903 0.0000 0.9569
vn 0.0435 0.8963 0.4413
vn 0.0980 0.0000 0.9952
vn -0.0435 0.8963 0.4413
vn -0.0980 0.0000 0.9952
vn -0.1287 0.8963 0.4243
vn -0.2903 0.0000 0.9569
vn -0.2090 0.8963 0.3911
vn -0.4714 0.0000 0.8819
vn -0.2813 0.8963 0.3428
vn -0.6344 0.0000 0.7730
vn -0.3428 0.8963 0.2813
vn -0.7730 0.0000 0.6344
vn -0.3911 0.8963 0.2090
vn -0.8819 0.0000 0.4714
vn -0.4243 0.8963 0.1287
vn -0.9569 0.0000 0.2903
vn -0.4413 0.8963 0.0435
vn -0.9952 0.0000 0.0980
vn -0.4413 0.8963 -0.0435
vn -0.9952 0.0000 -0.0980
vn -0.4243 0.8963 -0.1287
vn -0.9569 0.0000 -0.2903
vn -0.3911 0.8963 -0.2090
vn -0.8819 0.0000 -0.4714
vn -0.3428 0.8963 -0.2813
vn -0.7730 0.0000 -0.6344
vn -0.2813 0.8963 -0.3428
vn -0.6344 0.0000 -0.7730
vn -0.2090 0.8963 -0.3911
vn -0.4714 0.0000 -0.8819
vn -0.1287 0.8963 -0.4243
vn -0.2903 0.0000 -0.9569
vn -0.0435 0.8963 -0.4413
vn -0.0980 0.0000 -0.9952
usemtl None
s off
f 1/1/1 3/2/1 5/3/1
f 2/4/2 6/5/2 4/6/2
f 4/7/3 5/8/3 3/9/3
f 1/1/1 5/3/1 7/10/1
f 2/4/4 8/11/4 6/5/4
f 6/12/5 7/13/5 5/8/5
f 1/1/1 7/10/1 9/14/1
f 2/4/6 10/15/6 8/11/6
f 8/16/7 9/17/7 7/13/7
f 1/1/1 9/14/1 11/18/1
f 2/4/8 12/19/8 10/15/8
f 10/20/9 11/21/9 9/17/9
f 1/1/1 11/18/1 13/22/1
f 2/4/10 14/23/10 12/19/10
f 12/24/11 13/25/11 11/21/11
f 1/1/1 13/22/1 15/26/1
f 2/4/12 16/27/12 14/23/12
f 14/28/13 15/29/13 13/25/13
f 1/1/1 15/26/1 17/30/1
f 2/4/14 18/31/14 16/27/14
f 16/32/15 17/33/15 15/29/15
f 1/1/1 17/30/1 19/34/1
f 2/4/16 20/35/16 18/31/16
f 18/36/17 19/37/17 17/33/17
f 1/1/1 19/34/1 21/38/1
f 2/4/18 22/39/18 20/35/18
f 20/40/19 21/41/19 19/37/19
f 1/1/1 21/38/1 23/42/1
f 2/4/20 24/43/20 22/39/20
f 22/44/21 23/45/21 21/41/21
f 1/1/1 23/42/1 25/46/1
f 2/4/22 26/47/22 24/43/22
f 24/48/23 25/49/23 23/45/23
f 1/1/1 25/46/1 27/50/1
f 2/4/24 28/51/24 26/47/24
f 26/52/25 27/53/25 25/49/25
f 1/1/1 27/50/1 29/54/1
f 2/4/26 30/55/26 28/51/26
f 28/56/27 29/57/27 27/53/27
f 1/1/1 29/54/1 31/58/1
f 2/4/28 32/59/28 30/55/28
f 30/60/29 31/61/29 29/57/29
f 1/1/1 31/58/1 33/62/1
f 2/4/30 34/63/30 32/59/30
f 32/64/31 33/65/31 31/61/31
f 1/1/1 33/62/1 35/66/1
f 2/4/32 36/67/32 34/63/32
f 34/68/33 35/69/33 33/65/33
f 1/1/1 35/66/1 37/70/1
f 2/4/34 38/71/34 36/67/34
f 36/72/35 37/73/35 35/69/35
f 1/1/1 37/70/1 39/74/1
f 2/4/36 40/75/36 38/71/36
f 38/76/37 39/77/37 37/73/37
f 1/1/1 39/74/1 41/78/1
f 2/4/38 42/79/38 40/75/38
f 40/80/39 41/81/39 39/77/39
f 1/1/1 41/78/1 43/82/1
f 2/4/40 44/83/40 42/79/40
f 42/84/41 43/85/41 41/81/41
f 1/1/1 43/82/1 45/86/1
f 2/4/42 46/87/42 44/83/42
f 44/88/43 45/89/43 43/85/43
f 1/1/1 45/86/1 47/90/1
f 2/4/44 48/91/44 46/87/44
f 46/92/45 47/93/45 45/89/45
f 1/1/1 47/90/1 49/94/1
f 2/4/46 50/95/46 48/91/46
f 48/96/47 49/97/47 47/93/47
f 1/1/1 49/94/1 51/98/1
f 2/4/48 52/99/48 50/95/48
f 50/100/49 51/101/49 49/97/49
f 1/1/1 51/98/1 53/102/1
f 2/4/50 54/103/50 52/99/50
f 52/104/51 53/105/51 51/101/51
f 1/1/1 53/102/1 55/106/1
f 2/4/52 56/107/52 54/103/52
f 54/108/53 55/109/53 53/105/53
f 1/1/1 55/106/1 57/110/1
f 2/4/54 58/111/54 56/107/54
f 56/112/55 57/113/55 55/109/55
f 1/1/1 57/110/1 59/114/1
f 2/4/56 60/115/56 58/111/56
f 58/116/57 59/117/57 57/113/57
f 1/1/1 59/114/1 61/118/1
f 2/4/58 62/119/58 60/115/58
f 60/120/59 61/121/59 59/117/59
f 1/1/1 61/118/1 63/122/1
f 2/4/60 64/123/60 62/119/60
f 62/124/61 63/125/61 61/121/61
f 1/1/1 63/122/1 65/126/1
f 2/4/62 66/127/62 64/123/62
f 64/128/63 65/129/63 63/125/63
f 1/1/1 65/126/1 3/2/1
f 2/4/64 4/6/64 66/127/64
f 66/130/65 3/131/65 65/129/65
f 4/7/3 6/12/3 5/8/3
f 6/12/5 8/16/5 7/13/5
f 8/16/7 10/20/7 9/17/7
f 10/20/9 12/24/9 11/21/9
f 12/24/11 14/28/11 13/25/11
f 14/28/13 16/32/13 15/29/13
f 16/32/15 18/36/15 17/33/15
f 18/36/17 20/40/17 19/37/17
f 20/40/19 22/44/19 21/41/19
f 22/44/21 24/48/21 23/45/21
f 24/48/23 26/52/23 25/49/23
f 26/52/25 28/56/25 27/53/25
f 28/56/27 30/60/27 29/57/27
f 30/60/29 32/64/29 31/61/29
f 32/64/31 34/68/31 33/65/31
f 34/68/33 36/72/33 35/69/33
f 36/72/35 38/76/35 37/73/35
f 38/76/37 40/80/37 39/77/37
f 40/80/39 42/84/39 41/81/39
f 42/84/41 44/88/41 43/85/41
f 44/88/43 46/92/43 45/89/43
f 46/92/45 48/96/45 47/93/45
f 48/96/47 50/100/47 49/97/47
f 50/100/49 52/104/49 51/101/49
f 52/104/51 54/108/51 53/105/51
f 54/108/53 56/112/53 55/109/53
f 56/112/55 58/116/55 57/113/55
f 58/116/57 60/120/57 59/117/57
f 60/120/59 62/124/59 61/121/59
f 62/124/61 64/128/61 63/125/61
f 64/128/63 66/130/63 65/129/63
f 66/130/65 4/132/65 3/131/65
