# Blender v2.90.0 OBJ File: ''
# www.blender.org
mtllib complex.mtl
o Cylinder
v 0.000000 -1.000000 -1.000000
v 0.000000 1.000000 -0.849862
v 0.195090 -1.000000 -0.980785
v 0.195090 1.000000 -0.830648
v 0.382683 -1.000000 -0.923880
v 0.382683 1.000000 -0.923880
v 0.555570 -1.000000 -0.831470
v 0.555570 1.000000 -0.831470
v 0.707107 -1.000000 -0.707107
v 0.707107 1.000000 -0.707107
v 0.831470 -1.000000 -0.555570
v 0.831470 1.000000 -0.555570
v 0.923880 -1.000000 -0.382683
v 0.923880 1.000000 -0.382683
v 0.980785 -1.000000 -0.195090
v 0.980785 1.000000 -0.195090
v 1.000000 -1.000000 -0.000000
v 1.744092 1.493763 -0.000000
v 0.980785 -1.000000 0.195090
v 1.724878 1.493763 0.195090
v 0.923880 -1.000000 0.382683
v 1.667972 1.493763 0.382683
v 0.831470 -1.000000 0.555570
v 1.575562 1.493763 0.555570
v 0.707107 -1.000000 0.707107
v 0.707107 1.000000 0.707107
v 0.581982 -0.965368 0.825028
v 0.555570 1.000000 0.831470
v 0.382683 -1.000000 0.923880
v 0.382683 1.000000 0.923880
v 0.195090 -1.000000 0.980785
v 0.195090 1.000000 0.980785
v -0.000000 -1.000000 1.000000
v -0.000000 1.205078 1.000000
v -0.195091 -1.000000 0.980785
v -0.195091 1.205078 0.980785
v -0.382684 -1.000000 0.923879
v -0.382684 1.000000 0.923879
v -0.555571 -1.000000 0.831469
v -0.555571 1.000000 0.831469
v -0.707107 -1.000000 0.707106
v -0.707107 1.000000 0.707106
v -0.831470 -1.000000 0.555570
v -0.831470 1.000000 0.555570
v -0.923880 -1.000000 0.382683
v -0.923880 1.000000 0.382683
v -0.980785 -1.000000 0.195089
v -0.980785 1.000000 0.195089
v -1.000000 -1.117979 -0.000001
v -1.000000 1.000000 -0.000001
v -0.980785 -1.117979 -0.195091
v -0.980785 1.000000 -0.195091
v -0.923879 -1.117979 -0.382684
v -0.923879 1.000000 -0.382684
v -0.831469 -1.117979 -0.555571
v -0.831469 1.000000 -0.555571
v -0.707106 -1.000000 -0.707108
v -0.707106 1.000000 -0.707108
v -0.555569 -1.000000 -0.831470
v -0.555569 1.000000 -0.831470
v -0.382682 -1.000000 -0.923880
v -0.382682 1.000000 -0.923880
v -0.225574 -1.000000 -1.131772
v -0.195089 1.000000 -0.980786
v 0.000000 0.370476 -0.849862
v 0.195090 0.370476 -0.830648
v 0.382683 0.370476 -0.923880
v 0.555570 0.370476 -0.831470
v 0.707107 0.370476 -0.707107
v 0.967966 0.370476 -0.732264
v 0.923880 0.370476 -0.382683
v 0.980785 0.370476 -0.195090
v 1.744092 0.864239 -0.000000
v 1.724878 0.864239 0.195090
v 1.667972 0.864239 0.382683
v 1.575562 0.864239 0.555570
v 0.707107 0.370476 0.707107
v 0.555570 0.370476 0.831470
v 0.382683 0.370476 0.923880
v 0.195090 0.370476 0.980785
v -0.000000 0.370476 1.000000
v -0.195091 0.370476 0.980785
v -0.382684 0.370476 0.923879
v -0.555571 0.370476 0.831469
v -0.707107 0.370476 0.707106
v -0.831470 0.370476 0.555570
v -1.044973 0.229251 0.460267
v -1.101879 0.229251 0.272674
v -1.000000 0.370476 -0.000001
v -0.980785 0.370476 -0.195091
v -0.923879 0.370476 -0.382684
v -0.831469 0.370476 -0.555571
v -0.707106 0.370476 -0.707108
v -0.555569 0.370476 -0.831470
v -0.382682 0.370476 -0.923880
v -0.225574 0.370476 -1.131772
vt 1.000000 1.000000
vt 0.968750 0.842619
vt 1.000000 0.842619
vt 0.968750 1.000000
vt 0.937500 0.842619
vt 0.937500 1.000000
vt 0.906250 0.842619
vt 0.906250 1.000000
vt 0.875000 0.842619
vt 0.875000 1.000000
vt 0.843750 0.842619
vt 0.843750 1.000000
vt 0.812500 0.842619
vt 0.812500 1.000000
vt 0.781250 0.842619
vt 0.781250 1.000000
vt 0.750000 0.842619
vt 0.750000 1.000000
vt 0.718750 0.842619
vt 0.718750 1.000000
vt 0.687500 0.842619
vt 0.687500 1.000000
vt 0.656250 0.842619
vt 0.625000 1.000000
vt 0.625000 0.842619
vt 0.593750 0.842619
vt 0.593750 1.000000
vt 0.562500 0.842619
vt 0.562500 1.000000
vt 0.531250 0.842619
vt 0.531250 1.000000
vt 0.500000 0.842619
vt 0.500000 1.000000
vt 0.468750 0.842619
vt 0.468750 1.000000
vt 0.437500 0.842619
vt 0.437500 1.000000
vt 0.406250 0.842619
vt 0.406250 1.000000
vt 0.375000 0.842619
vt 0.375000 1.000000
vt 0.343750 0.842619
vt 0.312500 1.000000
vt 0.312500 0.842619
vt 0.281250 0.842619
vt 0.281250 1.000000
vt 0.250000 0.842619
vt 0.250000 1.000000
vt 0.218750 0.842619
vt 0.218750 1.000000
vt 0.187500 0.842619
vt 0.187500 1.000000
vt 0.156250 0.842619
vt 0.156250 1.000000
vt 0.125000 0.842619
vt 0.125000 1.000000
vt 0.093750 0.842619
vt 0.093750 1.000000
vt 0.062500 0.842619
vt 0.419706 0.080294
vt 0.485388 0.296822
vt 0.296822 0.485388
vt 0.031250 1.000000
vt 0.031250 0.842619
vt 0.000000 0.842619
vt 0.580295 0.419706
vt 0.971731 0.158156
vt 0.514611 0.203179
vt 0.000000 0.500000
vt 0.031250 0.500000
vt 0.062500 0.500000
vt 0.093750 0.500000
vt 0.125000 0.500000
vt 0.156250 0.500000
vt 0.187500 0.500000
vt 0.218750 0.500000
vt 0.250000 0.500000
vt 0.281250 0.500000
vt 0.312500 0.500000
vt 0.343750 0.500000
vt 0.375000 0.500000
vt 0.406250 0.500000
vt 0.437500 0.500000
vt 0.468750 0.500000
vt 0.500000 0.500000
vt 0.531250 0.500000
vt 0.562500 0.500000
vt 0.593750 0.500000
vt 0.625000 0.500000
vt 0.656250 0.500000
vt 0.687500 0.500000
vt 0.718750 0.500000
vt 0.750000 0.500000
vt 0.781250 0.500000
vt 0.812500 0.500000
vt 0.843750 0.500000
vt 0.875000 0.500000
vt 0.906250 0.500000
vt 0.937500 0.500000
vt 0.968750 0.500000
vt 1.000000 0.500000
vt 0.656250 1.000000
vt 0.343750 1.000000
vt 0.062500 1.000000
vt 0.250000 0.490000
vt 0.203179 0.485389
vt 0.158156 0.471731
vt 0.116663 0.449553
vt 0.080295 0.419706
vt 0.050447 0.383337
vt 0.028269 0.341844
vt 0.014612 0.296822
vt 0.010000 0.250000
vt 0.014611 0.203179
vt 0.028269 0.158156
vt 0.050447 0.116663
vt 0.080294 0.080294
vt 0.116663 0.050447
vt 0.158156 0.028269
vt 0.203178 0.014612
vt 0.250000 0.010000
vt 0.296822 0.014612
vt 0.341844 0.028269
vt 0.383337 0.050447
vt 0.449553 0.116663
vt 0.471731 0.158156
vt 0.485388 0.203178
vt 0.490000 0.250000
vt 0.471731 0.341844
vt 0.449553 0.383337
vt 0.419706 0.419706
vt 0.383337 0.449553
vt 0.341844 0.471731
vt 0.000000 1.000000
vt 0.750000 0.490000
vt 0.796822 0.485388
vt 0.841844 0.471731
vt 0.883337 0.449553
vt 0.919706 0.419706
vt 0.949553 0.383337
vt 0.971731 0.341844
vt 0.658156 0.471731
vt 0.985388 0.296822
vt 0.990000 0.250000
vt 0.985388 0.203178
vt 0.949553 0.116663
vt 0.919706 0.080294
vt 0.883337 0.050447
vt 0.528269 0.158156
vt 0.841844 0.028269
vt 0.580294 0.080294
vt 0.796822 0.014612
vt 0.750000 0.010000
vt 0.703178 0.014612
vt 0.658156 0.028269
vt 0.616663 0.050447
vt 0.550447 0.116663
vt 0.510000 0.250000
vt 0.514612 0.296822
vt 0.528269 0.341844
vt 0.550447 0.383337
vt 0.616663 0.449553
vt 0.703179 0.485389
vn 0.0980 0.0000 -0.9952
vn -0.4451 0.0000 -0.8955
vn 0.4714 0.0000 -0.8819
vn 0.6344 0.0000 -0.7730
vn -0.0960 0.0000 -0.9954
vn 0.9764 0.1772 0.1231
vn 0.9569 0.0000 -0.2903
vn 0.2476 0.0000 -0.9689
vn 0.9952 0.0000 0.0980
vn 0.9569 0.0000 0.2903
vn 0.8819 0.0000 0.4714
vn 0.1719 0.0000 0.9851
vn 0.6344 0.0000 0.7730
vn 0.4714 0.0000 0.8819
vn 0.2903 0.0000 0.9569
vn 0.0980 0.0000 0.9952
vn -0.0980 0.0000 0.9952
vn -0.2903 0.0000 0.9569
vn -0.4714 0.0000 0.8819
vn -0.6344 0.0000 0.7730
vn -0.7730 0.0000 0.6344
vn -0.4901 0.1632 0.8562
vn -0.9419 0.1767 0.2857
vn -0.9487 0.1196 -0.2925
vn -0.9952 0.0000 -0.0980
vn -0.9569 0.0000 -0.2903
vn -0.8819 0.0000 -0.4714
vn -0.7730 0.0000 -0.6344
vn -0.6344 0.0000 -0.7730
vn -0.4714 0.0000 -0.8819
vn 0.0000 1.0000 0.0000
vn -0.7847 0.1802 -0.5930
vn 0.7760 0.1113 -0.6209
vn 0.0000 -1.0000 0.0000
vn 0.5044 0.0000 -0.8635
vn -0.7978 0.0000 -0.6029
vn -0.9952 0.0000 0.0980
vn -0.9509 -0.1119 0.2885
vn -0.8760 -0.1158 0.4682
vn 0.4437 0.0045 0.8962
vn 0.6859 0.0000 0.7277
vn 0.7730 0.0000 0.6344
vn 0.8319 -0.3320 0.4447
vn 0.8940 -0.3568 0.2712
vn 0.9249 -0.3692 0.0911
vn 0.9952 0.0000 -0.0980
vn 0.8723 -0.1470 -0.4663
vn 0.7730 0.0000 -0.6344
vn 0.2903 0.0000 -0.9569
vn 0.0974 0.1084 -0.9893
vn 0.7306 0.3267 -0.5996
vn 0.8819 0.0000 -0.4714
vn -0.8819 0.0000 0.4714
vn -0.7077 0.6898 -0.1527
vn 0.0109 0.9939 -0.1102
vn 0.7188 0.6910 -0.0766
vn -0.5085 0.8471 -0.1543
vn -0.4321 0.8717 -0.2310
vn -0.4913 0.8581 -0.1490
vn -0.5329 0.8445 -0.0525
vn -0.2903 0.0000 -0.9569
vn 0.5572 0.0000 -0.8303
vn -0.0468 -0.9708 0.2354
vn 0.0482 -0.9690 -0.2423
vn 0.0290 -0.9993 -0.0238
vn 0.0273 -0.9995 -0.0146
vn 0.9467 -0.3084 0.0932
vn 0.6903 -0.6925 0.2094
vn 0.8389 -0.3084 0.4484
vn 0.7790 0.0683 -0.6233
vn -0.9228 -0.0670 -0.3795
vn -0.4076 0.0000 0.9132
vn 0.6344 0.0088 0.7730
vn 0.2193 -0.0875 0.9717
vn 0.3230 -0.1289 -0.9376
vn 0.9921 0.0000 0.1251
vn -0.0953 -0.1179 -0.9884
vn -0.4429 0.0976 -0.8912
usemtl None
s off
f 2/1/1 66/2/1 65/3/1
f 4/4/2 67/5/2 66/2/2
f 6/6/3 68/7/3 67/5/3
f 8/8/4 69/9/4 68/7/4
f 10/10/5 70/11/5 69/9/5
f 12/12/6 71/13/6 70/11/6
f 14/14/7 72/15/7 71/13/7
f 16/16/8 73/17/8 72/15/8
f 18/18/9 74/19/9 73/17/9
f 20/20/10 75/21/10 74/19/10
f 22/22/11 76/23/11 75/21/11
f 76/23/12 26/24/12 77/25/12
f 26/24/13 78/26/13 77/25/13
f 28/27/14 79/28/14 78/26/14
f 30/29/15 80/30/15 79/28/15
f 32/31/16 81/32/16 80/30/16
f 34/33/17 82/34/17 81/32/17
f 36/35/18 83/36/18 82/34/18
f 38/37/19 84/38/19 83/36/19
f 40/39/20 85/40/20 84/38/20
f 42/41/21 86/42/21 85/40/21
f 86/42/22 46/43/22 87/44/22
f 46/43/23 88/45/23 87/44/23
f 48/46/24 89/47/24 88/45/24
f 50/48/25 90/49/25 89/47/25
f 52/50/26 91/51/26 90/49/26
f 54/52/27 92/53/27 91/51/27
f 56/54/28 93/55/28 92/53/28
f 58/56/29 94/57/29 93/55/29
f 60/58/30 95/59/30 94/57/30
f 26/60/31 16/61/31 4/62/31
f 95/59/32 64/63/32 96/64/32
f 64/63/33 65/65/33 96/64/33
f 57/66/34 21/67/34 47/68/34
f 96/64/35 1/69/35 63/70/35
f 95/59/36 63/70/36 61/71/36
f 94/57/30 61/71/30 59/72/30
f 93/55/29 59/72/29 57/73/29
f 92/53/28 57/73/28 55/74/28
f 91/51/27 55/74/27 53/75/27
f 90/49/26 53/75/26 51/76/26
f 89/47/25 51/76/25 49/77/25
f 47/78/37 89/47/37 49/77/37
f 45/79/38 88/45/38 47/78/38
f 43/80/39 87/44/39 45/79/39
f 85/40/21 43/80/21 41/81/21
f 84/38/20 41/81/20 39/82/20
f 83/36/19 39/82/19 37/83/19
f 82/34/18 37/83/18 35/84/18
f 81/32/17 35/84/17 33/85/17
f 80/30/16 33/85/16 31/86/16
f 79/28/15 31/86/15 29/87/15
f 78/26/40 29/87/40 27/88/40
f 77/25/41 27/88/41 25/89/41
f 23/90/42 77/25/42 25/89/42
f 21/91/43 76/23/43 23/90/43
f 19/92/44 75/21/44 21/91/44
f 17/93/45 74/19/45 19/92/45
f 72/15/46 17/93/46 15/94/46
f 71/13/7 15/94/7 13/95/7
f 70/11/47 13/95/47 11/96/47
f 69/9/48 11/96/48 9/97/48
f 68/7/4 9/97/4 7/98/4
f 67/5/3 7/98/3 5/99/3
f 3/100/49 67/5/49 5/99/49
f 65/3/50 3/100/50 1/101/50
f 2/1/1 4/4/1 66/2/1
f 4/4/2 6/6/2 67/5/2
f 6/6/3 8/8/3 68/7/3
f 8/8/4 10/10/4 69/9/4
f 10/10/51 12/12/51 70/11/51
f 12/12/52 14/14/52 71/13/52
f 14/14/7 16/16/7 72/15/7
f 16/16/8 18/18/8 73/17/8
f 18/18/9 20/20/9 74/19/9
f 20/20/10 22/22/10 75/21/10
f 22/22/11 24/102/11 76/23/11
f 76/23/12 24/102/12 26/24/12
f 26/24/13 28/27/13 78/26/13
f 28/27/14 30/29/14 79/28/14
f 30/29/15 32/31/15 80/30/15
f 32/31/16 34/33/16 81/32/16
f 34/33/17 36/35/17 82/34/17
f 36/35/18 38/37/18 83/36/18
f 38/37/19 40/39/19 84/38/19
f 40/39/20 42/41/20 85/40/20
f 42/41/21 44/103/21 86/42/21
f 86/42/53 44/103/53 46/43/53
f 46/43/23 48/46/23 88/45/23
f 48/46/37 50/48/37 89/47/37
f 50/48/25 52/50/25 90/49/25
f 52/50/26 54/52/26 91/51/26
f 54/52/27 56/54/27 92/53/27
f 56/54/28 58/56/28 93/55/28
f 58/56/29 60/58/29 94/57/29
f 60/58/30 62/104/30 95/59/30
f 2/105/31 64/106/31 62/107/31
f 62/107/31 60/108/31 2/105/31
f 60/108/31 58/109/31 2/105/31
f 58/109/31 56/110/31 2/105/31
f 56/110/31 54/111/31 2/105/31
f 54/111/31 52/112/31 2/105/31
f 52/112/31 50/113/31 2/105/31
f 50/113/31 48/114/31 2/105/31
f 48/114/31 46/115/31 2/105/31
f 46/115/31 44/116/31 2/105/31
f 44/116/31 42/117/31 2/105/31
f 42/117/31 40/118/31 2/105/31
f 40/118/31 38/119/31 2/105/31
f 38/119/54 36/120/54 2/105/54
f 36/120/55 34/121/55 2/105/55
f 34/121/56 32/122/56 2/105/56
f 32/122/31 30/123/31 4/62/31
f 2/105/31 32/122/31 4/62/31
f 30/123/31 28/124/31 4/62/31
f 28/124/31 26/60/31 4/62/31
f 26/60/57 24/125/57 16/61/57
f 24/125/58 22/126/58 16/61/58
f 22/126/59 20/127/59 16/61/59
f 20/127/60 18/128/60 16/61/60
f 16/61/31 14/129/31 4/62/31
f 14/129/31 12/130/31 4/62/31
f 12/130/31 10/131/31 4/62/31
f 10/131/31 8/132/31 4/62/31
f 8/132/31 6/133/31 4/62/31
f 95/59/61 62/104/61 64/63/61
f 64/63/62 2/134/62 65/65/62
f 1/135/34 3/136/34 5/137/34
f 5/137/34 7/138/34 1/135/34
f 7/138/34 9/139/34 1/135/34
f 9/139/34 11/140/34 1/135/34
f 11/140/34 13/141/34 61/142/34
f 1/135/34 11/140/34 61/142/34
f 13/141/34 15/143/34 57/66/34
f 15/143/34 17/144/34 57/66/34
f 17/144/34 19/145/34 57/66/34
f 19/145/34 21/67/34 57/66/34
f 21/67/34 23/146/34 47/68/34
f 23/146/34 25/147/34 47/68/34
f 25/147/63 27/148/63 45/149/63
f 27/148/64 29/150/64 41/151/64
f 29/150/34 31/152/34 41/151/34
f 31/152/34 33/153/34 41/151/34
f 33/153/34 35/154/34 37/155/34
f 37/155/34 39/156/34 33/153/34
f 39/156/34 41/151/34 33/153/34
f 41/151/65 43/157/65 27/148/65
f 43/157/66 45/149/66 27/148/66
f 45/149/34 47/68/34 25/147/34
f 47/68/67 49/158/67 51/159/67
f 57/66/68 47/68/68 53/160/68
f 51/159/68 53/160/68 47/68/68
f 53/160/69 55/161/69 57/66/69
f 57/66/34 59/162/34 13/141/34
f 59/162/34 61/142/34 13/141/34
f 61/142/34 63/163/34 1/135/34
f 96/64/70 65/65/70 1/69/70
f 95/59/36 96/64/36 63/70/36
f 94/57/30 95/59/30 61/71/30
f 93/55/29 94/57/29 59/72/29
f 92/53/28 93/55/28 57/73/28
f 91/51/27 92/53/27 55/74/27
f 90/49/26 91/51/26 53/75/26
f 89/47/25 90/49/25 51/76/25
f 47/78/71 88/45/71 89/47/71
f 45/79/38 87/44/38 88/45/38
f 43/80/72 86/42/72 87/44/72
f 85/40/21 86/42/21 43/80/21
f 84/38/20 85/40/20 41/81/20
f 83/36/19 84/38/19 39/82/19
f 82/34/18 83/36/18 37/83/18
f 81/32/17 82/34/17 35/84/17
f 80/30/16 81/32/16 33/85/16
f 79/28/15 80/30/15 31/86/15
f 78/26/14 79/28/14 29/87/14
f 77/25/73 78/26/73 27/88/73
f 23/90/74 76/23/74 77/25/74
f 21/91/43 75/21/43 76/23/43
f 19/92/44 74/19/44 75/21/44
f 17/93/45 73/17/45 74/19/45
f 72/15/75 73/17/75 17/93/75
f 71/13/7 72/15/7 15/94/7
f 70/11/76 71/13/76 13/95/76
f 69/9/77 70/11/77 11/96/77
f 68/7/4 69/9/4 9/97/4
f 67/5/3 68/7/3 7/98/3
f 3/100/78 66/2/78 67/5/78
f 65/3/50 66/2/50 3/100/50
